# xmcd CD database file
#
# Track frame offsets:
#	150
#	22507
#	34686
#	56586
#
# Disc length: 940 seconds
#
# Revision: 0
# Processed by: cddbd v1.5.2PL0 Copyright (c) Steve Scherf et al.
# Submitted via: CDex 1.51
#
DISCID=2103aa04
DTITLE=Caty Andrew - I am
DYEAR=2011
DGENRE=Country
TTITLE0=Where were you when the world stopped turning
TTITLE1=Keep on the sunny side
TTITLE2=Streets of London ( Piano Version )
TTITLE3=Home to Louisiana
EXTD=YEAR: 2011
EXTT0=
EXTT1=
EXTT2=
EXTT3=
PLAYORDER=
